<?xml version="1.0" encoding="UTF-8" standalone="no"?>
<svg
   xmlns:dc="http://purl.org/dc/elements/1.1/"
   xmlns:cc="http://creativecommons.org/ns#"
   xmlns:rdf="http://www.w3.org/1999/02/22-rdf-syntax-ns#"
   xmlns:svg="http://www.w3.org/2000/svg"
   xmlns="http://www.w3.org/2000/svg"
   id="svg821"
   version="1.1"
   viewBox="0 0 6.3500127 6.3499947"
   height="24"
   width="24">
  <metadata
     id="metadata827">
    <rdf:RDF>
      <cc:Work
         rdf:about="">
        <dc:format>image/svg+xml</dc:format>
        <dc:type
           rdf:resource="http://purl.org/dc/dcmitype/StillImage" />
        <dc:title></dc:title>
      </cc:Work>
    </rdf:RDF>
  </metadata>
  <defs
     id="defs825" />
  <g
     transform="matrix(0.03320718,0,0,0.03320718,0.00166047,0.12024296)"
     style="fill:#ffffff;fill-opacity:1;stroke:#ffffff;stroke-width:0.40000001;stroke-opacity:1"
     id="g819">
    <path
       style="fill:#ffffff;fill-opacity:1;stroke:#ffffff;stroke-opacity:1"
       id="path815"
       d="m 124.174,172.556 c -0.11,-0.123 -0.142,-0.583 -0.11,-1.54 0.037,-1.075 0.007,-1.405 -0.139,-1.551 -0.123,-0.123 -0.156,-0.297 -0.098,-0.517 0.049,-0.182 0.11,-0.617 0.138,-0.966 0.027,-0.35 0.137,-1.263 0.245,-2.032 a 70.93,70.93 0 0 0 0.258,-2.032 c 0.034,-0.35 0.113,-0.92 0.174,-1.27 0.06,-0.35 0.177,-1.092 0.259,-1.65 a 36.31,36.31 0 0 1 0.336,-1.9 c 0.103,-0.487 0.215,-1.573 0.25,-2.414 0.059,-1.466 0.322,-3.826 0.77,-6.91 0.164,-1.136 0.176,-1.498 0.057,-1.689 -0.187,-0.3 -0.201,-1.195 -0.044,-2.772 0.066,-0.664 0.097,-1.464 0.07,-1.778 a 9.46,9.46 0 0 1 -0.045,-0.699 c 0.084,-1.59 0.059,-3.141 -0.052,-3.213 -0.153,-0.1 -0.163,-0.17 -0.306,-2.184 -0.057,-0.804 -0.165,-1.575 -0.24,-1.715 -0.197,-0.368 -0.94,-3.456 -0.944,-3.922 -0.003,-0.415 -0.182,-1.125 -0.382,-1.516 -0.114,-0.223 -0.215,-0.95 -0.49,-3.515 -0.072,-0.664 -0.155,-3.084 -0.185,-5.378 -0.033,-2.542 -0.104,-4.232 -0.182,-4.326 -0.08,-0.096 -0.103,-0.743 -0.06,-1.705 0.054,-1.244 0.034,-1.544 -0.1,-1.516 -0.111,0.023 -0.16,-0.085 -0.143,-0.319 0.019,-0.268 -0.027,-0.345 -0.19,-0.317 -0.223,0.036 -0.254,-0.165 -0.088,-0.57 0.07,-0.17 0.044,-0.205 -0.112,-0.145 -0.29,0.111 -0.39,-0.249 -0.168,-0.605 0.102,-0.163 0.217,-0.473 0.257,-0.69 0.04,-0.216 0.212,-0.702 0.383,-1.079 0.56,-1.236 1.083,-2.627 1.176,-3.122 0.05,-0.266 0.222,-0.863 0.383,-1.325 0.252,-0.724 0.282,-0.993 0.216,-1.937 -0.043,-0.603 -0.126,-1.096 -0.186,-1.096 -0.06,0 -0.108,-0.112 -0.108,-0.248 0,-0.659 -0.278,-1.507 -0.514,-1.569 -0.224,-0.058 -0.243,-0.178 -0.225,-1.392 0.018,-1.175 -0.009,-1.359 -0.238,-1.604 -0.261,-0.281 -0.31,-0.624 -0.489,-3.442 -0.033,-0.524 -0.147,-1.924 -0.254,-3.112 a 89.162,89.162 0 0 1 -0.242,-3.365 c -0.075,-1.88 -0.428,-3.316 -1.153,-4.706 -0.217,-0.415 -0.34,-0.95 -0.437,-1.905 -0.507,-5 -0.633,-5.751 -0.942,-5.633 -0.101,0.04 -0.224,-0.14 -0.333,-0.483 -0.094,-0.3 -0.24,-0.63 -0.323,-0.735 -0.14,-0.176 -0.34,-0.94 -0.48,-1.828 a 1.944,1.944 0 0 1 0.038,-0.699 c 0.052,-0.182 0.018,-0.902 -0.075,-1.6 -0.111,-0.83 -0.163,-2.437 -0.15,-4.636 0.011,-1.851 -0.023,-3.496 -0.076,-3.655 -0.052,-0.16 -0.28,-0.492 -0.508,-0.74 l -0.412,-0.45 -0.435,0.25 c -0.24,0.137 -0.643,0.314 -0.897,0.395 -0.381,0.12 -0.532,0.282 -0.876,0.934 -0.23,0.434 -0.512,0.932 -0.629,1.107 -0.35,0.524 -0.613,1.617 -0.822,3.429 -0.108,0.943 -0.262,1.974 -0.34,2.291 -0.118,0.471 -0.104,0.763 0.076,1.588 0.121,0.555 0.268,1.267 0.327,1.582 0.176,0.944 0.273,1.27 0.38,1.27 0.056,0 0.2,0.258 0.32,0.573 0.19,0.495 0.206,0.8 0.115,2.254 -0.057,0.925 -0.094,2.024 -0.082,2.443 0.065,2.266 0.874,6.523 1.326,6.973 0.207,0.206 0.213,0.446 0.027,1.056 a 0.217,0.217 0 0 0 0.084,0.236 c 0.074,0.046 0.095,0.228 0.048,0.417 -0.42,1.675 -0.591,3.469 -0.514,5.415 0.084,2.127 0.284,3.62 0.486,3.62 0.065,0 0.085,-0.086 0.045,-0.19 -0.139,-0.363 0.291,-0.196 0.49,0.19 0.109,0.21 0.277,0.38 0.375,0.38 0.098,0 0.246,0.215 0.33,0.477 0.085,0.262 0.21,0.547 0.279,0.633 0.233,0.294 -0.022,0.766 -0.63,1.17 -0.9,0.594 -1.079,0.612 -2.077,0.205 -0.135,-0.055 -0.246,0.02 -0.342,0.231 -0.1,0.22 -0.215,0.294 -0.387,0.249 -0.205,-0.054 -0.309,0.09 -0.625,0.867 a 15.461,15.461 0 0 0 -0.543,1.566 c -0.09,0.35 -0.212,0.69 -0.272,0.756 -0.166,0.185 -0.129,0.324 0.088,0.324 0.151,0 0.18,0.095 0.128,0.412 -0.285,1.726 -0.333,3.225 -0.19,5.991 0.082,1.612 0.199,3.024 0.258,3.137 0.281,0.539 0.378,1.428 0.228,2.1 -0.084,0.373 -0.202,0.679 -0.262,0.679 -0.06,0 -0.175,0.157 -0.255,0.349 -0.08,0.192 -0.306,0.692 -0.502,1.111 -0.675,1.447 -1.255,3.963 -1.433,6.223 -0.35,4.433 -0.304,7.966 0.12,9.428 0.165,0.565 0.174,0.726 0.044,0.806 -0.13,0.081 -0.131,0.22 -0.003,0.723 0.088,0.342 0.177,0.76 0.2,0.929 0.138,1.077 0.987,2.55 1.892,3.287 0.787,0.64 2.433,1.202 3.162,1.079 0.764,-0.13 1.397,0.038 1.907,0.505 0.255,0.234 0.435,0.453 0.4,0.488 -0.034,0.034 0.031,0.425 0.146,0.868 0.204,0.786 0.18,1.87 -0.048,2.24 -0.18,0.291 -0.915,0.27 -1.594,-0.046 -0.356,-0.166 -0.771,-0.302 -0.922,-0.303 -0.15,-0.001 -0.765,-0.248 -1.365,-0.55 l -1.091,-0.547 -0.005,1.532 c -0.004,1.24 -0.058,1.69 -0.286,2.358 l -0.281,0.825 -0.664,0.017 c -0.955,0.023 -0.98,-0.035 -0.792,-1.887 0.188,-1.864 0.18,-2.102 -0.103,-3.066 -0.206,-0.7 -0.286,-0.798 -1.328,-1.62 -0.61,-0.482 -1.203,-1.018 -1.317,-1.192 -0.347,-0.53 -0.476,-0.387 -0.374,0.414 0.125,0.971 0.091,1.955 -0.125,3.701 -0.099,0.796 -0.155,1.486 -0.125,1.534 0.072,0.117 -0.407,2.443 -0.595,2.89 -0.081,0.194 -0.16,0.438 -0.176,0.543 -0.015,0.105 -0.145,0.647 -0.289,1.206 -0.442,1.723 -0.51,2.016 -0.593,2.531 -0.053,0.33 -0.115,0.443 -0.183,0.333 -0.12,-0.195 -0.319,0.752 -0.27,1.293 0.017,0.19 -0.066,0.476 -0.185,0.635 -0.143,0.191 -0.19,0.214 -0.14,0.066 0.041,-0.122 0.013,-0.222 -0.064,-0.222 -0.09,0 -0.112,0.17 -0.062,0.483 0.051,0.32 0.017,0.57 -0.1,0.737 -0.098,0.14 -0.218,0.465 -0.266,0.723 -0.051,0.274 -0.162,0.47 -0.265,0.47 -0.097,0 -0.176,0.057 -0.176,0.127 0,0.07 0.053,0.127 0.118,0.127 0.07,0 0.075,0.152 0.01,0.378 -0.066,0.229 -0.056,0.516 0.023,0.73 0.111,0.297 0.041,0.6 -0.45,1.94 -0.32,0.873 -0.726,2.073 -0.902,2.667 -0.366,1.236 -0.768,1.779 -1.25,1.687 -0.286,-0.055 -0.302,-0.096 -0.207,-0.517 0.126,-0.56 0.052,-0.704 -0.27,-0.531 -0.343,0.183 -1.337,-0.372 -1.02,-0.57 0.066,-0.04 0.157,-0.257 0.204,-0.483 0.046,-0.227 0.33,-1.04 0.629,-1.809 0.3,-0.768 0.586,-1.597 0.636,-1.841 0.05,-0.245 0.281,-1.045 0.513,-1.778 0.232,-0.734 0.548,-1.934 0.703,-2.667 0.154,-0.734 0.334,-1.476 0.4,-1.65 0.065,-0.174 0.204,-0.774 0.308,-1.333 0.104,-0.56 0.294,-1.39 0.423,-1.843 0.128,-0.454 0.273,-1.026 0.323,-1.27 0.049,-0.245 0.144,-0.673 0.21,-0.953 0.066,-0.28 0.197,-0.88 0.291,-1.333 0.094,-0.454 0.322,-1.54 0.507,-2.413 0.84,-3.973 0.858,-4.09 0.78,-5.185 -0.066,-0.907 -0.135,-1.147 -0.486,-1.683 -0.225,-0.344 -0.453,-0.625 -0.506,-0.625 -0.054,0 -0.098,-0.086 -0.098,-0.19 0,-0.105 -0.043,-0.191 -0.096,-0.191 -0.052,0 -0.176,-0.186 -0.274,-0.413 a 5.654,5.654 0 0 0 -0.388,-0.73 c -0.116,-0.175 -0.29,-0.575 -0.387,-0.89 -0.098,-0.314 -0.217,-0.6 -0.264,-0.634 -0.27,-0.198 -0.542,-1.624 -0.629,-3.302 -0.217,-4.213 -0.403,-6.587 -0.574,-7.342 -0.1,-0.441 -0.182,-0.937 -0.182,-1.101 0,-0.164 -0.047,-0.318 -0.104,-0.341 -0.057,-0.024 -0.232,-0.986 -0.388,-2.138 -0.31,-2.29 -0.482,-3.251 -0.974,-5.461 -0.34,-1.53 -0.586,-2.85 -0.884,-4.763 a 29.35,29.35 0 0 0 -0.379,-1.968 c -0.372,-1.528 -0.467,-2.22 -0.4,-2.91 0.037,-0.38 0.01,-0.799 -0.063,-0.932 -0.079,-0.147 -0.133,-1.534 -0.138,-3.503 -0.008,-3.388 0.052,-3.902 0.564,-4.91 0.142,-0.28 0.299,-0.594 0.348,-0.7 0.175,-0.369 1.304,-0.882 1.95,-0.885 0.774,-0.004 2.844,1.015 3.453,1.699 0.07,0.079 0.288,0.246 0.486,0.373 0.201,0.128 0.33,0.304 0.294,0.4 -0.036,0.093 0.134,0.388 0.377,0.657 0.306,0.337 0.422,0.41 0.377,0.233 a 9.098,9.098 0 0 1 -0.13,-0.952 c -0.36,-3.835 -0.46,-5.28 -0.477,-6.858 -0.011,-1.013 -0.065,-1.902 -0.12,-1.976 -0.103,-0.139 -0.327,-1.478 -0.413,-2.47 -0.028,-0.314 -0.177,-1.257 -0.332,-2.095 -0.155,-0.838 -0.297,-2.067 -0.315,-2.73 -0.019,-0.664 -0.127,-1.977 -0.242,-2.92 -0.114,-0.942 -0.184,-1.773 -0.156,-1.848 0.029,-0.075 -0.002,-0.618 -0.068,-1.208 -0.066,-0.59 -0.166,-2.073 -0.222,-3.295 -0.056,-1.223 -0.194,-2.851 -0.306,-3.62 -0.406,-2.768 -0.61,-4.635 -0.756,-6.933 -0.182,-2.838 -0.176,-6.9 0.01,-7.493 0.076,-0.238 0.2,-0.674 0.275,-0.97 0.15,-0.578 0.804,-1.303 1.178,-1.304 0.122,0 0.228,-0.043 0.235,-0.095 0.007,-0.053 0.032,-0.324 0.055,-0.604 0.21,-2.565 0.922,-5.083 1.677,-5.934 0.162,-0.183 0.165,-0.23 0.019,-0.279 -0.206,-0.069 -1.602,-0.295 -2.78,-0.451 -1.088,-0.144 -2.67,-0.564 -2.776,-0.737 -0.058,-0.093 -0.355,-0.026 -0.909,0.206 -0.453,0.19 -1.08,0.421 -1.395,0.515 -0.314,0.093 -0.828,0.25 -1.143,0.349 -0.314,0.098 -1.25,0.234 -2.079,0.302 -0.829,0.068 -1.886,0.185 -2.35,0.26 -1.238,0.198 -4.207,0.286 -4.207,0.123 0,-0.19 -0.765,-0.162 -1.154,0.041 -0.286,0.15 -0.43,0.14 -1.08,-0.07 -1.478,-0.48 -5.595,-0.067 -6.913,0.691 -0.431,0.249 -0.515,0.259 -0.812,0.1 -0.28,-0.15 -0.623,-0.151 -2.266,-0.01 -1.064,0.092 -2.707,0.16 -3.65,0.153 l -2.435,-0.017 c -0.808,-0.004 -1.141,-0.216 -1.027,-0.651 0.084,-0.322 -0.115,-0.285 -1.237,0.23 -0.384,0.177 -0.841,0.338 -1.016,0.359 -0.658,0.079 -1.833,0.698 -2.63,1.385 -0.34,0.293 -0.524,0.405 -1.368,0.832 -0.992,0.501 -1.625,0.983 -1.519,1.154 0.04,0.064 0.007,0.116 -0.072,0.116 -0.078,0 -0.325,0.133 -0.547,0.296 -2.147,1.57 -3.018,2.288 -4.247,3.497 -0.787,0.774 -1.79,1.68 -2.23,2.014 -0.441,0.333 -1.183,0.946 -1.65,1.36 -0.891,0.794 -1.28,0.965 -1.412,0.621 -0.112,-0.29 0.157,-1.061 0.502,-1.438 a 3.25,3.25 0 0 0 0.481,-0.762 c 0.105,-0.245 0.325,-0.597 0.488,-0.783 0.55,-0.626 0.742,-0.87 0.742,-0.944 0,-0.15 1.355,-1.408 1.968,-1.83 0.349,-0.239 0.96,-0.735 1.36,-1.102 0.398,-0.366 1.027,-0.842 1.397,-1.057 1.908,-1.108 4.68,-3.438 3.108,-2.611 a 12.87,12.87 0 0 1 -1.038,0.48 c -0.418,0.164 -1.928,0.858 -3.62,1.663 -0.174,0.083 -0.346,0.187 -0.38,0.23 -0.12,0.15 -3.745,1.408 -4.217,1.464 -0.418,0.05 -0.492,0.014 -0.664,-0.318 -0.19,-0.369 -0.185,-0.384 0.314,-0.883 0.344,-0.344 0.932,-0.693 1.832,-1.087 0.729,-0.32 1.59,-0.782 1.913,-1.029 0.323,-0.247 0.644,-0.448 0.714,-0.448 0.17,0 2.798,-1.296 2.986,-1.473 0.081,-0.076 1.167,-0.468 2.413,-0.87 1.246,-0.404 2.48,-0.813 2.744,-0.91 0.263,-0.097 0.592,-0.176 0.73,-0.176 0.138,0 0.251,-0.036 0.251,-0.08 0,-0.12 -0.54,-0.988 -0.67,-1.077 -0.063,-0.043 -0.106,-0.116 -0.098,-0.161 0.01,-0.046 -0.109,-0.354 -0.262,-0.685 -0.964,-2.084 -0.977,-3.252 -0.03,-2.632 l 0.3,0.197 -0.075,-0.625 c -0.093,-0.758 0.075,-1.129 0.51,-1.129 0.27,0 0.36,0.108 0.586,0.713 0.236,0.63 0.421,0.898 0.628,0.905 0.071,0.002 -0.067,-1.71 -0.195,-2.425 -0.07,-0.386 -0.043,-0.469 0.165,-0.523 0.412,-0.108 0.638,0.123 0.856,0.872 0.143,0.493 0.184,0.954 0.133,1.491 -0.106,1.114 0.099,2.534 0.524,3.634 0.354,0.916 0.402,0.975 1.326,1.606 1.09,0.745 2.557,1.238 3.37,1.132 0.27,-0.035 1.746,-0.094 3.283,-0.132 2.795,-0.068 3.38,-0.15 4.635,-0.647 0.421,-0.166 0.985,-0.233 2.137,-0.252 1.438,-0.025 1.582,-0.05 1.755,-0.297 0.105,-0.149 0.24,-0.24 0.3,-0.202 0.061,0.037 0.157,-0.012 0.214,-0.11 0.086,-0.148 0.252,-0.126 0.992,0.132 0.823,0.286 1.12,0.314 4,0.372 1.712,0.034 3.268,0.113 3.46,0.176 0.191,0.062 0.477,0.082 0.635,0.044 0.158,-0.039 0.773,-0.15 1.366,-0.247 2.593,-0.426 3.483,-0.683 4.553,-1.314 1.045,-0.617 1.543,-0.762 1.543,-0.45 0,0.187 0.083,0.206 0.565,0.134 0.476,-0.071 0.608,-0.042 0.838,0.188 0.335,0.335 0.58,0.408 2.971,0.885 2.112,0.421 3.377,0.58 4.326,0.54 4.27,-0.175 6.717,-0.043 10.24,0.552 0.362,0.061 0.547,0.016 0.848,-0.206 l 0.385,-0.285 0.423,0.255 c 0.233,0.14 0.623,0.29 0.867,0.332 0.814,0.143 5.353,0.113 5.5,-0.035 a 0.551,0.551 0 0 1 0.34,-0.138 c 0.518,0 1.997,-0.873 2.498,-1.475 0.68,-0.815 1.315,-1.85 1.225,-1.996 -0.039,-0.063 -0.506,-0.316 -1.039,-0.561 -0.882,-0.408 -1.108,-0.455 -2.573,-0.541 -0.883,-0.052 -1.662,-0.13 -1.732,-0.172 -0.07,-0.043 -0.976,-0.141 -2.014,-0.218 -1.038,-0.077 -2.03,-0.155 -2.205,-0.174 -0.174,-0.018 -1.574,-0.075 -3.111,-0.126 -1.643,-0.055 -3.085,-0.166 -3.5,-0.27 -0.693,-0.173 -2.287,-0.448 -2.66,-0.457 -0.104,-0.003 -0.647,-0.08 -1.206,-0.173 -0.559,-0.091 -1.706,-0.17 -2.549,-0.175 -0.843,-0.004 -1.986,-0.094 -2.54,-0.2 -0.554,-0.106 -1.303,-0.193 -1.665,-0.193 -0.535,0 -0.7,-0.055 -0.889,-0.293 -0.127,-0.16 -0.504,-0.369 -0.838,-0.462 -0.65,-0.181 -0.757,-0.278 -0.805,-0.732 -0.047,-0.434 0.36,-0.605 1.014,-0.428 0.289,0.079 0.953,0.223 1.477,0.32 0.524,0.098 1.324,0.266 1.778,0.372 0.945,0.223 3.839,0.466 5.525,0.464 0.697,0 2.01,0.148 3.365,0.38 2.365,0.407 5.926,0.706 7.81,0.657 0.63,-0.017 1.687,0.032 2.35,0.107 l 1.715,0.195 c 0.28,0.032 0.699,0.093 0.932,0.136 l 0.425,0.078 -0.361,-0.365 c -0.324,-0.328 -0.545,-0.396 -2.14,-0.662 -0.977,-0.163 -2.063,-0.38 -2.412,-0.483 -0.359,-0.105 -1.382,-0.21 -2.35,-0.242 -5.052,-0.162 -6.197,-0.262 -7.81,-0.682 -0.6,-0.156 -1.614,-0.29 -2.477,-0.328 -2.42,-0.107 -4.434,-0.502 -4.82,-0.946 -0.111,-0.127 -0.472,-0.26 -0.831,-0.309 a 21.602,21.602 0 0 1 -1.46,-0.267 c -0.455,-0.1 -1.283,-0.279 -1.842,-0.396 a 21.493,21.493 0 0 1 -1.524,-0.372 c -0.682,-0.214 -1.532,-0.463 -3.874,-1.133 a 721.48,721.48 0 0 1 -3.048,-0.878 83.735,83.735 0 0 0 -2.408,-0.653 c -1.173,-0.297 -3.491,-1.115 -4.67,-1.65 -0.53,-0.24 -3.045,-0.74 -3.276,-0.652 -0.097,0.037 -1.193,-0.132 -2.436,-0.376 a 903.716,903.716 0 0 0 -4.99,-0.96 c -1.501,-0.285 -2.959,-0.566 -3.238,-0.627 -2.015,-0.433 -4.242,-0.742 -5.461,-0.759 -1.765,-0.023 -5.135,0.521 -6.04,0.976 -0.33,0.166 -0.67,0.302 -0.754,0.302 -0.084,0 -0.333,0.08 -0.553,0.178 -0.22,0.098 -0.829,0.335 -1.353,0.527 -1.451,0.533 -3.672,1.447 -4.372,1.8 -1.298,0.655 -1.978,0.772 -1.978,0.339 0,-0.265 -0.08,-0.241 -2.052,0.6 -1.002,0.426 -1.977,0.792 -2.169,0.812 -0.19,0.02 -0.534,0.155 -0.762,0.301 -0.6,0.384 -1.788,0.95 -2.954,1.41 -0.559,0.22 -1.445,0.63 -1.969,0.912 -2.627,1.412 -7.815,3.185 -9.365,3.2 -1.071,0.011 -1.215,-0.084 -1.448,-0.961 -0.202,-0.76 -0.036,-0.97 1.255,-1.595 0.814,-0.393 0.91,-0.477 0.846,-0.734 -0.086,-0.343 0.324,-0.82 0.704,-0.82 0.135,0 0.28,-0.056 0.323,-0.124 0.042,-0.068 0.317,-0.186 0.61,-0.264 0.294,-0.077 1.364,-0.5 2.376,-0.94 1.013,-0.441 2.728,-1.159 3.81,-1.595 2.97,-1.197 4.602,-1.896 4.938,-2.114 0.91,-0.593 6.87,-2.48 9.54,-3.02 0.524,-0.105 1.92,-0.45 3.1,-0.766 2.42,-0.648 2.276,-0.618 2.171,-0.45 -0.05,0.082 0.26,0.098 0.882,0.046 0.695,-0.059 0.96,-0.04 0.96,0.067 0,0.11 0.588,0.139 2.231,0.11 1.228,-0.021 2.26,0.006 2.294,0.06 0.034,0.055 0.358,0.101 0.72,0.103 1.116,0.005 3.924,0.34 4.01,0.48 0.045,0.072 1.004,0.305 2.13,0.517 1.128,0.212 2.397,0.502 2.821,0.645 0.92,0.31 1.206,0.323 1.46,0.07 0.17,-0.17 0.3,-0.157 1.184,0.119 1.668,0.52 2.243,0.682 2.74,0.774 0.261,0.048 0.475,0.136 0.475,0.197 0,0.06 0.172,0.075 0.381,0.033 0.21,-0.042 0.452,-0.018 0.54,0.052 0.149,0.12 2.344,0.676 2.588,0.657 0.06,-0.005 -0.003,-0.06 -0.143,-0.124 -0.177,-0.08 -0.1,-0.091 0.254,-0.037 0.28,0.043 0.556,0.161 0.615,0.262 0.068,0.115 0.216,0.156 0.397,0.11 0.168,-0.041 0.738,0.086 1.353,0.302 0.585,0.206 1.007,0.38 0.937,0.388 -0.262,0.027 0.564,0.28 2.286,0.7 1.971,0.48 2.312,0.577 3.873,1.089 a 34.81,34.81 0 0 0 2.477,0.676 c 0.768,0.177 2.01,0.49 2.761,0.695 0.75,0.204 1.668,0.37 2.04,0.366 0.799,-0.007 2.652,0.397 2.784,0.608 0.05,0.08 0.25,0.125 0.444,0.099 0.29,-0.04 0.307,-0.029 0.1,0.061 -0.438,0.19 0.44,0.245 1.944,0.124 0.864,-0.07 1.657,-0.061 2.182,0.022 0.454,0.072 1.462,0.185 2.24,0.25 0.777,0.066 1.777,0.203 2.222,0.304 1.007,0.23 2.366,0.348 4.495,0.392 1.575,0.033 3.171,0.246 4.823,0.643 0.419,0.1 1.82,0.272 3.111,0.381 1.293,0.109 2.807,0.28 3.366,0.382 0.576,0.105 1.785,0.184 2.794,0.183 1.764,-10e-4 3.999,0.236 7.302,0.778 a 40.04,40.04 0 0 0 3.175,0.364 c 0.873,0.057 1.845,0.163 2.16,0.233 0.314,0.071 1.027,0.139 1.584,0.15 0.56,0.012 1.617,0.162 2.362,0.337 1.459,0.342 1.778,0.571 1.927,1.384 0.039,0.21 0.143,0.737 0.232,1.174 l 0.162,0.794 -0.588,0.857 c -0.929,1.355 -2.802,2.943 -3.934,3.336 -0.506,0.175 -1.044,0.39 -1.196,0.475 -0.493,0.279 -1.845,0.53 -2.424,0.451 -0.307,-0.042 -0.49,-0.117 -0.41,-0.167 0.362,-0.224 -1.247,-0.21 -2.156,0.02 -1.228,0.307 -3.358,0.455 -3.606,0.25 -0.098,-0.082 -0.657,-0.17 -1.242,-0.198 l -2.95,-0.14 c -1.363,-0.065 -1.912,-0.05 -1.977,0.055 -0.066,0.106 -0.405,0.11 -1.287,0.017 l -1.325,-0.14 c -0.389,-0.035 -2.531,0.142 -3.239,0.27 -1.426,0.255 -3.853,0.242 -5.143,-0.028 -2.36,-0.494 -5.593,-0.654 -8.62,-0.427 -1.283,0.096 -1.45,0.203 -0.984,0.625 0.135,0.123 0.305,0.556 0.393,1.001 0.085,0.432 0.263,0.999 0.396,1.26 0.133,0.26 0.242,0.597 0.242,0.748 0,0.15 0.217,0.484 0.483,0.741 0.97,0.943 1.245,1.885 1.426,4.894 0.095,1.573 0.253,2.754 0.588,4.382 0.252,1.226 0.482,2.371 0.512,2.546 0.171,1.017 0.335,1.402 0.628,1.476 0.33,0.083 0.975,0.83 1.121,1.299 0.051,0.164 0.11,0.678 0.132,1.143 0.02,0.464 0.066,0.93 0.1,1.035 0.033,0.105 0.128,0.783 0.211,1.507 0.082,0.724 0.198,1.41 0.257,1.524 0.103,0.2 0.342,2.786 0.478,5.16 0.036,0.629 0.103,1.172 0.15,1.207 0.122,0.092 0.465,1.278 0.772,2.667 0.147,0.663 0.32,1.435 0.384,1.714 0.065,0.28 0.182,0.966 0.262,1.524 0.08,0.56 0.31,1.6 0.514,2.312 0.202,0.712 0.43,1.77 0.508,2.35 0.077,0.579 0.197,1.125 0.268,1.213 0.121,0.15 0.308,1.67 0.611,4.984 0.147,1.6 0.418,3.119 0.682,3.81 0.094,0.244 0.298,1.216 0.454,2.159 0.156,0.943 0.327,1.771 0.38,1.841 0.054,0.07 0.256,0.756 0.45,1.524 0.193,0.769 0.394,1.426 0.445,1.46 0.052,0.036 0.163,0.322 0.247,0.636 0.083,0.314 0.235,0.864 0.338,1.222 0.248,0.866 0.545,3.627 0.48,4.46 -0.028,0.366 -0.252,1.286 -0.497,2.044 -0.502,1.552 -0.514,1.703 -0.256,3.165 0.196,1.102 0.27,4.222 0.125,5.301 -0.05,0.375 -0.016,0.974 0.083,1.46 0.109,0.542 0.17,1.919 0.175,4.001 0.005,1.913 0.065,3.377 0.15,3.683 0.198,0.712 0.643,2.81 0.74,3.49 0.046,0.313 0.101,0.6 0.124,0.637 0.04,0.063 0.216,1.107 0.576,3.393 0.08,0.504 0.112,0.968 0.072,1.033 -0.04,0.064 0.064,0.967 0.23,2.005 0.354,2.216 0.587,3.96 0.574,4.308 -0.009,0.24 -0.012,0.24 -0.124,-0.007 -0.083,-0.185 -0.104,-0.09 -0.075,0.349 0.022,0.331 0.024,0.618 0.005,0.637 -0.034,0.034 -0.13,4.98 -0.226,11.523 -0.025,1.782 -0.112,3.696 -0.191,4.255 -0.08,0.559 -0.179,1.93 -0.22,3.048 -0.066,1.774 -0.023,3.105 0.284,8.763 0.056,1.035 0.043,1.12 -0.13,0.904 -0.106,-0.132 -0.23,-0.49 -0.276,-0.796 -0.092,-0.618 -0.308,-0.877 -0.308,-0.37 0,0.24 -0.066,0.325 -0.254,0.325 -0.14,0 -0.254,0.085 -0.254,0.19 0,0.173 -0.15,0.248 -0.412,0.207 -0.134,-0.021 -0.73,0.514 -0.73,0.656 0,0.064 -0.135,0.277 -0.298,0.471 l -0.298,0.354 -0.452,-0.258 c -0.31,-0.178 -0.479,-0.382 -0.538,-0.653 l -0.087,-0.395 -0.13,0.317 c -0.07,0.175 -0.18,0.417 -0.243,0.538 a 1.18,1.18 0 0 0 -0.116,0.445 c -0.004,0.484 -0.568,0.801 -0.852,0.48 z M 108.88,131.022 c -0.284,-3.015 -0.017,-7.321 0.526,-8.506 0.064,-0.14 0.18,-0.511 0.26,-0.825 0.775,-3.102 1.251,-4.332 1.901,-4.91 0.206,-0.184 0.411,-0.455 0.456,-0.602 0.045,-0.147 0.156,-0.353 0.248,-0.458 0.211,-0.242 0.024,-1.968 -0.246,-2.274 -0.097,-0.111 -0.219,-0.459 -0.27,-0.773 -0.05,-0.315 -0.115,-0.686 -0.144,-0.826 -0.06,-0.294 -0.043,-5.25 0.021,-6.286 0.12,-1.92 0.647,-3.958 1.288,-4.983 0.164,-0.26 0.297,-0.504 0.297,-0.541 0,-0.132 0.573,-0.95 0.667,-0.952 0.178,-0.003 1.07,-0.953 1.338,-1.426 0.245,-0.433 0.254,-0.52 0.099,-1.016 -0.093,-0.3 -0.242,-0.787 -0.331,-1.083 -0.213,-0.707 -0.067,-6.967 0.197,-8.5 0.067,-0.384 -0.214,-1.982 -0.442,-2.518 -0.06,-0.14 -0.229,-1.225 -0.376,-2.413 a 135.46,135.46 0 0 0 -0.387,-2.92 c -0.215,-1.366 -0.285,-3.032 -0.15,-3.609 0.116,-0.505 0.1,-0.599 -0.175,-0.959 -0.493,-0.646 -0.656,-1.678 -0.773,-4.894 -0.063,-1.73 -0.039,-2.107 0.2,-3.112 0.348,-1.465 0.597,-2.257 0.959,-3.048 0.312,-0.683 0.697,-1.848 0.7,-2.12 0,-0.09 0.314,-0.471 0.696,-0.845 l 0.695,-0.679 0.637,0.088 c 0.598,0.082 0.893,-0.065 0.462,-0.23 -0.104,-0.04 -0.21,-0.366 -0.265,-0.808 -0.05,-0.407 -0.25,-1.311 -0.444,-2.01 a 21.418,21.418 0 0 1 -0.504,-2.413 68.09,68.09 0 0 0 -0.268,-1.841 45.168,45.168 0 0 1 -0.253,-1.905 c -0.142,-1.268 -0.327,-2.25 -0.53,-2.814 -0.162,-0.449 -0.72,-0.972 -0.838,-0.785 -0.049,0.078 -0.346,0.216 -0.66,0.307 -0.622,0.181 -1.131,0.488 -1.142,0.688 -0.004,0.07 -0.284,0.37 -0.624,0.669 -0.34,0.297 -0.69,0.726 -0.78,0.952 -0.09,0.226 -0.232,0.497 -0.316,0.602 -0.313,0.388 -0.547,1.483 -0.553,2.58 -0.003,0.616 -0.074,1.473 -0.157,1.905 -0.34,1.764 -0.138,5.432 0.415,7.514 0.13,0.487 0.236,1.034 0.236,1.215 0,0.181 0.171,0.684 0.381,1.116 0.21,0.433 0.381,0.818 0.381,0.857 0,0.038 0.15,0.267 0.334,0.507 l 0.334,0.438 -0.203,0.728 c -0.252,0.905 -0.386,2.565 -0.362,4.476 0.015,1.186 0.022,2.356 0.023,3.62 10e-4,1.148 0.136,3.05 0.245,3.456 0.078,0.29 0.174,0.773 0.213,1.074 0.039,0.302 0.21,0.959 0.378,1.46 0.17,0.5 0.308,1.13 0.308,1.398 0,0.353 0.071,0.532 0.259,0.65 0.142,0.088 0.222,0.22 0.177,0.293 -0.234,0.38 -0.534,3.373 -0.549,5.49 -0.009,1.269 -0.05,2.679 -0.092,3.133 -0.052,0.57 -0.013,1.041 0.124,1.524 0.11,0.384 0.26,1.296 0.332,2.026 0.117,1.17 0.174,1.374 0.48,1.713 0.192,0.212 0.391,0.405 0.444,0.43 0.199,0.09 0.08,0.288 -0.318,0.531 -0.703,0.429 -1.746,0.274 -1.746,-0.26 0,-0.24 -0.315,-0.356 -0.402,-0.149 -0.023,0.055 -0.257,0.263 -0.52,0.46 -0.813,0.614 -1.499,2.417 -1.694,4.456 -0.047,0.49 -0.126,0.946 -0.175,1.016 -0.153,0.215 -0.15,1.314 0.004,1.601 0.08,0.15 0.177,0.68 0.215,1.177 0.091,1.2 0.091,1.097 -0.014,3.604 -0.057,1.333 -0.047,2.19 0.025,2.19 0.065,0 -0.04,0.305 -0.232,0.676 -0.193,0.371 -0.534,1.243 -0.759,1.937 a 35.683,35.683 0 0 1 -0.516,1.515 c -0.06,0.14 -0.137,0.511 -0.174,0.826 -0.036,0.314 -0.153,0.943 -0.26,1.397 -0.714,3.044 -0.71,3.014 -0.91,6.604 -0.075,1.36 -0.057,1.53 0.257,2.476 0.185,0.559 0.37,1.253 0.412,1.541 0.041,0.291 0.216,0.688 0.39,0.89 0.175,0.2 0.465,0.563 0.645,0.808 0.4,0.542 0.947,1.152 0.992,1.107 0.018,-0.019 -0.026,-0.66 -0.098,-1.428 z m -3.92,-10.332 c 0.001,-0.166 0.113,-0.794 0.248,-1.397 a 96.46,96.46 0 0 0 0.512,-2.492 c 0.328,-1.719 0.656,-2.78 1.22,-3.937 0.482,-0.99 0.495,-1.179 0.444,-6.477 -0.012,-1.187 0.031,-2.559 0.096,-3.048 0.087,-0.655 0.076,-0.972 -0.04,-1.206 -0.266,-0.538 -0.467,-1.172 -0.636,-2.003 -0.147,-0.728 -0.8,-2.667 -1.31,-3.888 -0.269,-0.647 -0.79,-1.155 -1.508,-1.472 -0.718,-0.318 -0.748,-0.318 -1.093,0.006 a 1.538,1.538 0 0 1 -0.627,0.332 c -0.27,0.055 -0.36,0.159 -0.407,0.468 -0.059,0.385 -0.244,4.118 -0.225,4.546 a 0.313,0.313 0 0 1 -0.186,0.287 c -0.13,0.05 -0.164,0.149 -0.1,0.296 0.052,0.122 0.105,0.764 0.118,1.428 0.03,1.529 0.297,3.454 0.504,3.62 0.205,0.164 0.39,1.02 0.647,2.984 0.232,1.776 0.658,4.484 0.775,4.921 0.042,0.16 0.018,0.286 -0.054,0.286 -0.15,0 -0.054,0.49 0.146,0.745 0.206,0.261 0.565,2.159 0.773,4.08 0.2,1.844 0.408,2.686 0.593,2.394 0.06,-0.094 0.109,-0.306 0.11,-0.472 z m 4.749,-24.304 c -0.046,-0.297 -0.126,-0.597 -0.179,-0.667 a 1.447,1.447 0 0 1 -0.169,-0.38 c -0.04,-0.14 -0.049,0.006 -0.019,0.326 0.055,0.59 0.257,1.26 0.38,1.26 0.038,0 0.032,-0.242 -0.013,-0.54 z m 1.657,-1.503 c -0.04,-1.123 -0.107,-2.166 -0.148,-2.317 -0.296,-1.082 -0.196,-6.198 0.154,-7.874 0.162,-0.775 0.175,-1.035 0.057,-1.177 -0.137,-0.165 -0.284,-0.66 -0.638,-2.147 -0.593,-2.494 -0.938,-10.05 -0.582,-12.75 l 0.174,-1.322 -0.37,-0.743 c -0.205,-0.408 -0.42,-0.742 -0.477,-0.742 -0.059,0 -0.174,-0.415 -0.258,-0.921 a 59.4,59.4 0 0 0 -0.406,-2.127 c -0.14,-0.664 -0.305,-2.035 -0.366,-3.048 a 90.305,90.305 0 0 0 -0.244,-3.112 c -0.223,-2.15 -0.182,-2.585 0.453,-4.762 0.235,-0.804 0.452,-1.61 0.484,-1.794 0.032,-0.184 0.264,-0.602 0.514,-0.93 0.25,-0.33 0.456,-0.651 0.456,-0.716 0,-0.14 0.686,-0.878 0.816,-0.878 0.05,0 0.33,-0.164 0.622,-0.364 0.292,-0.2 0.654,-0.402 0.805,-0.45 0.15,-0.047 0.343,-0.169 0.428,-0.27 0.085,-0.103 0.319,-0.186 0.52,-0.186 0.331,0 0.365,-0.04 0.365,-0.437 0,-0.24 -0.056,-0.472 -0.124,-0.514 -0.067,-0.042 -0.187,-0.313 -0.265,-0.603 -0.165,-0.612 -1.16,-1.618 -1.604,-1.62 -0.153,0 -0.311,-0.055 -0.352,-0.121 -0.073,-0.118 -0.45,-0.182 -1.878,-0.32 -0.64,-0.062 -0.73,-0.043 -0.73,0.155 0,0.123 -0.117,0.538 -0.26,0.921 -0.793,2.12 -1.292,4.137 -1.173,4.744 0.07,0.356 -0.044,1.214 -0.414,3.132 -0.208,1.076 -0.24,1.646 -0.07,1.207 0.14,-0.357 0.28,0.798 0.274,2.263 -0.004,1.099 0.14,3.298 0.31,4.733 0.066,0.556 0.149,0.71 0.574,1.067 0.273,0.23 0.473,0.455 0.444,0.501 -0.085,0.138 -0.069,1.076 0.058,3.434 0.17,3.168 0.247,4.075 0.381,4.508 0.066,0.21 0.153,0.953 0.195,1.651 0.106,1.753 0.177,2.482 0.256,2.61 0.07,0.112 0.135,1.236 0.248,4.248 0.075,2.018 0.21,3.075 0.484,3.81 0.66,1.765 0.662,1.78 0.662,6.323 0,3.282 -0.038,4.314 -0.158,4.388 -0.226,0.14 -0.021,2.62 0.262,3.19 0.117,0.234 0.213,0.607 0.213,0.83 0,0.406 0.08,0.573 0.275,0.573 0.058,0 0.073,-0.92 0.033,-2.043 z m -2.04,-5.863 c -0.023,-5.79 -0.033,-6.022 -0.29,-6.592 -0.146,-0.325 -0.235,-0.67 -0.198,-0.768 0.038,-0.097 -0.02,-0.424 -0.126,-0.726 a 4.12,4.12 0 0 1 -0.195,-1.138 c 0,-0.323 -0.056,-0.788 -0.125,-1.034 -0.068,-0.246 -0.149,-1.59 -0.18,-2.985 -0.03,-1.395 -0.14,-3.137 -0.245,-3.87 a 43.099,43.099 0 0 1 -0.273,-2.477 53.4,53.4 0 0 0 -0.205,-2.159 c -0.068,-0.559 -0.159,-1.92 -0.202,-3.026 -0.075,-1.913 -0.093,-2.02 -0.37,-2.201 -0.216,-0.142 -0.345,-0.433 -0.5,-1.133 -0.116,-0.518 -0.263,-0.942 -0.327,-0.942 -0.064,0 -0.085,0.128 -0.047,0.285 0.379,1.54 0.85,5.335 0.675,5.443 -0.143,0.089 -0.026,1.347 0.147,1.574 0.054,0.07 0.133,0.313 0.177,0.54 0.043,0.227 0.114,0.584 0.157,0.794 0.052,0.254 0.027,0.38 -0.074,0.38 -0.194,0 -0.1,3.946 0.116,4.89 0.08,0.35 0.217,1.321 0.306,2.16 0.088,0.837 0.233,1.695 0.323,1.904 0.11,0.259 0.142,0.744 0.099,1.51 -0.047,0.839 -0.005,1.363 0.163,2.033 0.185,0.73 0.476,3.967 0.488,5.41 10e-4,0.175 0.032,0.575 0.068,0.89 0.036,0.314 0.1,1.228 0.142,2.032 0.042,0.803 0.13,1.975 0.196,2.603 l 0.196,1.873 c 0.042,0.402 0.088,0.73 0.102,0.73 0.014,0 0.015,-2.7 0.002,-6 z M 105.77,56.369 c -0.047,-0.814 -0.127,-1.48 -0.18,-1.48 -0.128,0 -0.111,0.87 0.041,2.068 0.178,1.4 0.238,1.145 0.139,-0.588 z m -0.057,-2.7 c -0.094,-0.113 -0.093,-0.237 0.002,-0.415 0.183,-0.342 0.175,-1.16 -0.012,-1.16 -0.082,0 -0.117,0.032 -0.078,0.071 0.038,0.039 -0.035,0.48 -0.164,0.98 -0.18,0.696 -0.198,0.933 -0.08,1.007 0.22,0.14 0.505,-0.274 0.332,-0.483 z m 38.81,-12.204 c 1.524,-0.187 1.737,-0.247 2.78,-0.787 1.11,-0.575 1.482,-0.93 2.783,-2.65 0.408,-0.539 -0.23,-2.291 -0.85,-2.336 a 5.979,5.979 0 0 1 -0.395,-0.04 c -0.738,-0.12 -2.72,-0.227 -3.975,-0.215 -0.931,0.01 -1.864,-0.056 -2.31,-0.16 -0.57,-0.132 -1.516,-0.16 -3.963,-0.117 a 190.49,190.49 0 0 1 -4.421,0.037 c -1.992,-0.033 -2.286,0 -2.679,0.29 -0.201,0.148 -0.352,0.283 -0.336,0.299 0.017,0.015 0.802,0.052 1.745,0.081 1.688,0.053 1.72,0.06 2.111,0.425 0.552,0.517 0.762,0.942 0.537,1.085 -0.094,0.06 -0.125,0.11 -0.069,0.11 0.056,0.002 0.013,0.13 -0.095,0.285 a 1.288,1.288 0 0 0 -0.198,0.629 c 0,0.395 -0.242,0.994 -0.401,0.994 -0.059,0 -0.107,0.056 -0.107,0.125 0,0.069 -0.171,0.403 -0.38,0.744 -0.21,0.34 -0.382,0.648 -0.382,0.682 0,0.035 0.414,0.099 0.92,0.143 0.507,0.043 1.322,0.133 1.81,0.2 0.49,0.066 1.713,0.152 2.719,0.19 1.006,0.04 1.852,0.094 1.88,0.123 0.12,0.12 1.737,0.052 3.276,-0.137 z m 6.687,-2.218 c 0.883,-0.84 1.242,-1.402 1.152,-1.804 -0.033,-0.149 0.093,-0.37 0.34,-0.596 0.216,-0.197 0.393,-0.434 0.393,-0.527 0,-0.27 -0.958,-0.608 -1.726,-0.608 h -0.708 l 0.254,0.412 c 0.232,0.377 0.32,1.002 0.286,2.013 -0.006,0.18 -0.158,0.495 -0.339,0.698 -0.345,0.39 -0.942,1.268 -0.942,1.387 0,0.157 0.49,-0.213 1.29,-0.975 z" />
    <path
       style="fill:#ffffff;fill-opacity:1;stroke:#ffffff;stroke-opacity:1"
       id="path817"
       d="m 118.326,179.985 c 0.208,-0.107 0.883,-0.33 1.5,-0.496 0.617,-0.165 1.228,-0.36 1.357,-0.43 0.433,-0.241 3.392,-1.365 5.164,-1.962 0.964,-0.325 1.942,-0.704 2.173,-0.84 0.231,-0.138 0.673,-0.328 0.982,-0.423 0.308,-0.096 1.191,-0.441 1.963,-0.769 0.77,-0.327 2.222,-0.923 3.225,-1.324 2.522,-1.008 3.542,-1.508 5.478,-2.683 0.92,-0.559 2.052,-1.231 2.514,-1.494 a 40.761,40.761 0 0 0 1.963,-1.224 c 2.457,-1.633 3.281,-2.12 4.627,-2.73 1.9,-0.86 5.84,-3.45 7.371,-4.843 0.429,-0.39 0.985,-0.867 1.235,-1.06 0.25,-0.193 0.738,-0.73 1.083,-1.192 0.345,-0.463 1.745,-1.98 3.112,-3.372 3.198,-3.26 3.535,-3.639 3.535,-3.98 0,-0.39 0.443,-1.15 1.417,-2.43 0.455,-0.597 0.827,-1.123 0.827,-1.168 0,-0.104 1.349,-2.089 1.818,-2.675 0.195,-0.244 0.576,-0.748 0.846,-1.119 0.62,-0.852 0.782,-1.059 1.472,-1.872 0.309,-0.363 0.814,-0.994 1.122,-1.4 0.309,-0.408 0.782,-1.01 1.052,-1.338 1.253,-1.526 1.949,-2.483 2.849,-3.916 0.535,-0.852 1.016,-1.58 1.069,-1.62 0.053,-0.038 0.546,-0.763 1.097,-1.612 1.043,-1.61 1.89,-2.594 2.229,-2.594 0.11,0 0.33,0.122 0.49,0.27 0.262,0.245 0.276,0.342 0.15,1.017 -0.535,2.849 -1.224,4.369 -3.77,8.318 -2.007,3.112 -1.92,2.986 -4.854,6.955 -0.136,0.185 -0.452,0.625 -0.7,0.977 -0.477,0.673 -1.232,1.573 -2.804,3.341 -0.522,0.587 -1.024,1.272 -1.115,1.522 -0.091,0.251 -0.217,0.456 -0.278,0.456 -0.062,0 -0.114,0.11 -0.117,0.246 -0.004,0.267 -0.05,0.334 -0.97,1.452 -1.311,1.59 -6.385,6.467 -7.5,7.206 -0.429,0.285 -0.78,0.575 -0.78,0.645 0,0.07 -0.067,0.126 -0.15,0.126 -0.083,0 -0.233,0.08 -0.333,0.176 -0.101,0.096 -0.314,0.265 -0.474,0.376 -0.16,0.11 -0.251,0.268 -0.205,0.35 0.047,0.083 0.035,0.105 -0.026,0.05 -0.062,-0.056 -0.287,0.022 -0.5,0.174 -0.214,0.152 -0.428,0.277 -0.477,0.277 -0.18,0 -0.907,0.608 -0.845,0.708 0.067,0.108 -0.607,0.606 -0.846,0.624 -0.292,0.023 -0.9,0.396 -0.83,0.51 0.04,0.064 -0.018,0.082 -0.13,0.04 -0.116,-0.045 -0.298,0.058 -0.427,0.243 -0.124,0.176 -0.225,0.276 -0.225,0.222 0,-0.172 -1.004,0.436 -2.384,1.443 -0.733,0.535 -1.411,0.974 -1.507,0.975 -0.097,0.001 -0.176,0.055 -0.176,0.119 0,0.064 -0.173,0.204 -0.385,0.312 -0.212,0.108 -0.607,0.328 -0.877,0.49 -0.27,0.163 -0.9,0.518 -1.402,0.79 -0.501,0.274 -1.583,0.911 -2.404,1.418 -1.666,1.028 -3.136,1.792 -3.97,2.062 -0.305,0.1 -1.314,0.541 -2.243,0.982 -1.538,0.73 -4.1,1.72 -11.014,4.259 -4.681,1.718 -9.209,2.46 -9.246,2.195 -0.067,-0.437 0.01,-0.601 0.244,-0.76 z m 37.667,-15.918 c -0.036,-0.037 -0.176,0.047 -0.309,0.186 -0.23,0.241 -0.228,0.244 0.067,0.067 0.17,-0.102 0.28,-0.216 0.242,-0.253 z m -79.025,17.307 c -0.648,-0.128 -0.915,-0.195 -1.951,-0.35 -1.036,-0.156 -2.294,-0.374 -2.796,-0.485 l -2.173,-0.485 c -0.694,-0.155 -2.272,-0.504 -3.506,-0.777 -2.486,-0.548 -6.447,-1.6 -8.05,-2.14 -2.35,-0.79 -7.907,-3.552 -11.09,-5.514 a 186.979,186.979 0 0 0 -3.015,-1.821 c -1.138,-0.664 -3.769,-2.385 -5.047,-3.301 a 13.597,13.597 0 0 0 -1.386,-0.856 7.5,7.5 0 0 1 -1.332,-0.945 c -0.866,-0.79 -1.59,-1.33 -2.659,-1.983 -0.49,-0.298 -1.277,-0.924 -1.751,-1.39 -0.745,-0.735 -1.876,-1.58 -5.072,-3.787 -0.778,-0.538 -1.663,-1.401 -4.104,-4.003 -0.905,-0.964 -1.97,-2.1 -2.37,-2.524 a 52.117,52.117 0 0 0 -1.472,-1.493 c -0.41,-0.397 -1.592,-1.505 -4.908,-6.235 -3.317,-4.73 -3.62,-5.656 -3.911,-6.504 A 745.834,745.834 0 0 0 5.921,124.161 C 4.665,120.683 3.465,115.949 2.401,110.279 L 1.625,106.142 C 0.675,101.073 0.147,96.691 0.15,93.902 0.156,89.155 0.86,83.237 1.892,79.29 c 0.18,-0.694 0.4,-1.64 0.488,-2.103 0.744,-3.928 3.018,-12.246 4.218,-15.424 0.29,-0.772 0.64,-1.876 0.774,-2.454 0.312,-1.335 0.714,-2.568 1.055,-3.238 0.147,-0.288 0.463,-1.018 0.702,-1.623 0.384,-0.973 2.112,-4.631 3.003,-6.357 1.374,-2.662 1.966,-3.69 3.196,-5.536 1.542,-2.317 3.907,-5.536 4.794,-6.527 a 145.45,145.45 0 0 0 1.62,-1.864 87.19,87.19 0 0 1 1.66,-1.89 c 0.335,-0.362 1.183,-1.29 1.885,-2.061 1.455,-1.6 1.44,-1.585 3.124,-3.063 0.69,-0.604 1.727,-1.534 2.305,-2.066 3.39,-3.117 4.47,-4.038 6.24,-5.317 1.08,-0.78 2.152,-1.582 2.384,-1.783 0.45,-0.39 4.207,-2.896 4.907,-3.272 a 94.895,94.895 0 0 0 1.893,-1.093 c 0.81,-0.477 2.072,-1.097 2.805,-1.379 1.494,-0.574 4.233,-1.911 6.03,-2.944 a 26.852,26.852 0 0 1 2.102,-1.084 c 0.502,-0.22 1.543,-0.735 2.314,-1.145 3.523,-1.872 6.25,-2.845 10.012,-3.573 2.566,-0.496 3.309,-0.68 5.623,-1.398 2.252,-0.697 2.772,-0.784 5.893,-0.982 1.425,-0.09 2.842,-0.25 3.151,-0.357 0.973,-0.335 15.154,-0.061 22.505,0.435 l 4.067,0.27 c 1.658,0.11 3.614,0.3 4.347,0.423 12.216,2.05 15.116,2.745 19.981,4.78 0.848,0.355 3.656,1.43 3.996,1.53 0.685,0.202 5.923,2.55 6.731,3.018 0.408,0.236 2.52,1.262 2.597,1.262 0.116,0 0.97,0.614 1.025,0.736 0.026,0.058 0.107,0.105 0.181,0.105 0.125,0 1.805,1.063 3.91,2.473 0.766,0.514 1.901,1.378 4.536,3.452 0.22,0.173 0.472,0.38 0.56,0.46 0.09,0.08 0.382,0.298 0.652,0.486 0.774,0.537 2.675,2.112 3.34,2.766 0.333,0.328 0.893,0.832 1.245,1.12 0.667,0.547 3.472,3.386 4.541,4.598 0.34,0.385 0.653,0.732 0.693,0.77 0.04,0.04 0.29,0.355 0.553,0.702 0.264,0.347 0.587,0.738 0.719,0.869 0.428,0.426 1.458,1.842 2.122,2.917 0.543,0.88 1.478,2.192 2.07,2.903 0.078,0.094 0.141,0.228 0.141,0.299 0,0.07 0.1,0.212 0.223,0.314 0.123,0.101 0.506,0.724 0.852,1.384 a 68.032,68.032 0 0 0 2.11,3.75 c 0.326,0.544 1.031,1.848 1.568,2.898 0.536,1.05 1.099,2.084 1.25,2.297 0.307,0.434 1.286,2.478 2.2,4.594 0.332,0.771 0.92,2.065 1.304,2.874 1.508,3.172 3.395,9.47 4.096,13.672 0.09,0.54 0.283,1.518 0.43,2.173 0.265,1.196 0.594,3.065 0.838,4.768 0.261,1.823 0.703,4.54 0.98,6.03 0.511,2.751 0.715,11.856 0.361,16.14 -0.13,1.573 -0.301,3.317 -0.382,3.877 -0.08,0.559 -0.131,1.916 -0.114,3.014 0.018,1.099 -0.009,2.219 -0.058,2.489 -0.05,0.27 -0.25,1.5 -0.444,2.734 -0.385,2.438 -0.534,3.066 -0.931,3.935 -0.143,0.314 -0.26,0.706 -0.26,0.871 0,0.166 -0.127,0.622 -0.28,1.013 -0.155,0.391 -0.281,0.894 -0.281,1.117 0,0.666 -0.397,0.943 -1.087,0.758 -0.37,-0.1 -0.389,-0.321 -0.096,-1.163 0.212,-0.606 0.391,-1.766 0.36,-2.325 -0.009,-0.154 0.047,-0.596 0.124,-0.981 0.297,-1.506 0.435,-4.575 0.208,-4.65 -0.151,-0.051 -0.175,-6.917 -0.024,-7.16 0.046,-0.075 0.12,-0.666 0.162,-1.314 a 41.59,41.59 0 0 1 0.228,-2.3 c 0.174,-1.3 0.088,-10.21 -0.123,-12.62 -0.15,-1.725 -0.378,-3.335 -0.665,-4.698 -0.105,-0.5 -0.327,-1.826 -0.492,-2.944 a 137.73,137.73 0 0 0 -0.78,-4.557 365.195,365.195 0 0 1 -0.75,-4.076 c -0.763,-4.357 -2.48,-9.907 -3.943,-12.751 a 29.554,29.554 0 0 1 -1.186,-2.713 c -0.294,-0.799 -0.67,-1.65 -0.835,-1.893 a 6.84,6.84 0 0 1 -0.55,-1.073 c -0.138,-0.347 -0.305,-0.696 -0.371,-0.776 -0.147,-0.178 -1.959,-3.805 -1.959,-3.921 0,-0.117 -1.396,-2.426 -1.593,-2.635 -0.255,-0.27 -1.143,-1.776 -1.59,-2.694 -0.717,-1.476 -1.06,-2.078 -1.8,-3.155 -2.032,-2.964 -3.019,-4.378 -3.18,-4.558 a 5.892,5.892 0 0 1 -0.6,-0.796 c -0.652,-1.029 -5.192,-5.8 -5.69,-5.98 a 0.215,0.215 0 0 1 -0.13,-0.19 c 0,-0.258 -0.712,-1.008 -1.84,-1.937 -0.607,-0.501 -1.689,-1.406 -2.402,-2.01 -1.426,-1.209 -1.471,-1.246 -2.275,-1.848 a 87.598,87.598 0 0 1 -1.683,-1.32 c -1.268,-1.018 -3.627,-2.59 -4.104,-2.737 -0.174,-0.053 -0.316,-0.155 -0.316,-0.227 0,-0.072 -0.085,-0.13 -0.189,-0.13 -0.103,0 -0.334,-0.127 -0.512,-0.282 -0.178,-0.154 -0.817,-0.565 -1.42,-0.912 a 34.638,34.638 0 0 1 -1.582,-0.963 c -0.268,-0.181 -1.137,-0.601 -1.932,-0.933 a 85.332,85.332 0 0 1 -2.638,-1.157 c -2.741,-1.278 -6.823,-2.842 -11.428,-4.38 -0.96,-0.32 -2.585,-0.73 -5.258,-1.325 L 122.21,5.325 c -0.308,-0.07 -1.381,-0.256 -2.384,-0.413 L 115.803,4.279 A 64.99,64.99 0 0 0 111.737,3.784 C 109.152,3.578 107.132,3.359 105.874,3.149 105.313,3.055 100.384,2.806 96.129,2.655 93.969,2.579 91.349,2.48 90.304,2.434 88.838,2.37 88.119,2.404 87.149,2.587 c -0.69,0.13 -1.919,0.262 -2.728,0.295 -3.696,0.152 -4.76,0.32 -9.115,1.438 -1.504,0.386 -3.46,0.84 -4.347,1.01 -3.938,0.75 -8.22,2.49 -14.062,5.711 -0.91,0.501 -2.235,1.148 -2.945,1.438 -2.648,1.079 -8.158,3.896 -8.945,4.573 -0.122,0.105 -0.258,0.154 -0.303,0.11 -0.192,-0.192 -3.237,1.996 -3.096,2.224 0.049,0.079 0.022,0.102 -0.06,0.052 -0.082,-0.051 -0.643,0.239 -1.247,0.644 -1.091,0.732 -1.324,0.907 -2.284,1.722 -0.275,0.234 -0.739,0.602 -1.03,0.817 a 8.53,8.53 0 0 0 -0.771,0.635 c -0.133,0.134 -0.557,0.49 -0.943,0.79 -0.385,0.301 -1.111,0.929 -1.612,1.395 a 94.43,94.43 0 0 1 -2.034,1.82 c -1.418,1.23 -5.794,5.605 -6.805,6.805 -0.422,0.5 -1.15,1.32 -1.617,1.823 -0.468,0.503 -0.973,1.08 -1.122,1.283 a 75.83,75.83 0 0 1 -1.41,1.757 c -0.627,0.764 -1.38,1.766 -1.673,2.226 -0.294,0.46 -0.92,1.373 -1.39,2.028 -1.284,1.791 -2.235,3.436 -3.773,6.52 -0.5,1.003 -1.037,2.044 -1.194,2.314 -0.416,0.716 -1.82,3.73 -2.156,4.628 -0.159,0.424 -0.405,0.979 -0.548,1.233 -0.142,0.254 -0.418,1.138 -0.612,1.963 a 28.221,28.221 0 0 1 -0.845,2.814 c -0.496,1.325 -1.55,4.905 -2.32,7.871 -0.817,3.152 -1.5,5.969 -1.597,6.59 -0.055,0.348 -0.25,1.263 -0.434,2.034 -0.634,2.664 -0.903,4.483 -0.984,6.66 -0.044,1.196 -0.131,2.521 -0.193,2.945 -0.245,1.677 -0.163,7.529 0.132,9.485 0.153,1.013 0.344,2.717 0.424,3.786 0.08,1.069 0.24,2.259 0.355,2.644 0.116,0.386 0.368,1.435 0.56,2.332 0.193,0.898 0.51,2.254 0.703,3.015 0.193,0.761 0.442,2.046 0.553,2.856 0.185,1.363 1.037,4.342 1.55,5.423 0.118,0.249 0.47,1.449 0.78,2.668 0.311,1.218 0.842,3.162 1.181,4.319 0.339,1.156 0.652,2.374 0.696,2.705 0.044,0.331 0.136,0.71 0.204,0.841 0.067,0.132 0.295,0.713 0.505,1.291 0.21,0.579 0.493,1.336 0.628,1.683 0.136,0.347 0.357,0.978 0.493,1.402 0.135,0.424 0.459,1.186 0.718,1.692 0.26,0.506 0.472,0.976 0.472,1.044 0,0.068 0.147,0.348 0.326,0.622 1.135,1.737 1.654,2.57 1.979,3.175 0.588,1.1 1.007,1.702 3.18,4.572 1.127,1.489 2.216,2.96 2.421,3.268 0.205,0.308 0.55,0.826 0.768,1.15 0.51,0.76 2.334,2.706 2.535,2.706 0.085,0 0.225,0.155 0.312,0.344 0.086,0.189 0.384,0.451 0.663,0.583 0.603,0.286 1.615,1.099 2.686,2.158 0.43,0.424 1.075,0.992 1.435,1.262 0.36,0.27 0.69,0.585 0.732,0.7 0.042,0.116 0.343,0.412 0.67,0.658 0.325,0.246 0.781,0.601 1.012,0.79 1.27,1.034 2.064,1.643 2.945,2.257 0.54,0.376 1.207,0.91 1.483,1.189 0.814,0.82 1.947,1.741 3.145,2.559 0.617,0.42 1.405,0.96 1.752,1.199 0.347,0.239 1.01,0.675 1.472,0.97 0.463,0.294 0.873,0.569 0.912,0.61 0.138,0.148 0.923,0.667 1.542,1.02 a 381.856,381.856 0 0 1 5.61,3.259 c 1.683,1.006 3.394,1.893 4.424,2.295 0.39,0.152 1.431,0.604 2.314,1.005 1.49,0.676 4.154,1.716 5.576,2.178 0.334,0.108 1.817,0.448 3.296,0.756 1.478,0.308 3.855,0.84 5.282,1.18 1.427,0.343 3.067,0.696 3.646,0.786 3.309,0.514 7.903,1.46 8.65,1.478 1.418,0.034 5.64,0.658 8.475,0.789 1.223,0.056 3.672,-0.002 3.672,-0.002 2.431,-0.001 4.31,-0.077 5.564,-0.223 1.041,-0.121 2.84,-0.313 3.997,-0.425 1.156,-0.113 1.66,-0.218 1.835,-0.266 0.174,-0.05 1.32,-0.15 1.687,0.052 0.127,0.07 0.322,0.13 0.467,0.085 0.75,-0.238 1.096,-0.118 1.597,0.282 0.338,0.27 0.456,0.449 0.367,0.556 -0.073,0.088 -0.1,0.192 -0.06,0.232 0.098,0.097 -1.413,0.516 -2.19,0.608 -0.34,0.04 -1.123,0.135 -1.74,0.21 a 120.538,120.538 0 0 1 -3.015,0.336 c -0.424,0.045 -1.529,0.112 -2.454,0.15 -0.925,0.038 -2.471,0.131 -3.435,0.207 -1.68,0.131 -3.19,0.146 -4.698,0.046 v 0 c -0.385,-0.025 -9.725,-0.917 -9.9,-0.935 -0.92,-0.098 -5.947,-0.815 -6.877,-0.998 z" />
  </g>
</svg>
